<?xml version="1.0" encoding="UTF-8"?>
<svg width="64" height="64" viewBox="0 0 64 64" xmlns="http://www.w3.org/2000/svg">
  <!-- Sfondo trasparente -->
  <rect width="64" height="64" fill="none"/>
  
  <!-- Corpo dell'orco -->
  <ellipse cx="32" cy="45" rx="12" ry="18" fill="#228b22"/>
  
  <!-- Testa -->
  <ellipse cx="32" cy="25" rx="10" ry="12" fill="#90ee90"/>
  
  <!-- Zanne -->
  <polygon points="28,20 26,18 30,18" fill="#ffffff"/>
  <polygon points="36,20 34,18 38,18" fill="#ffffff"/>
  
  <!-- Occhi rossi -->
  <circle cx="28" cy="22" r="2" fill="#ff0000"/>
  <circle cx="36" cy="22" r="2" fill="#ff0000"/>
  
  <!-- Bocca arrabbiata -->
  <path d="M26 28 Q32 32 38 28" stroke="#000" stroke-width="2" fill="none"/>
  
  <!-- Braccia muscolose -->
  <ellipse cx="18" cy="38" rx="5" ry="12" fill="#228b22"/>
  <ellipse cx="46" cy="38" rx="5" ry="12" fill="#228b22"/>
  
  <!-- Mani con artigli -->
  <ellipse cx="16" cy="46" rx="4" ry="5" fill="#90ee90"/>
  <ellipse cx="48" cy="46" rx="4" ry="5" fill="#90ee90"/>
  
  <!-- Artigli -->
  <polygon points="16,46 14,44 18,44" fill="#ffffff"/>
  <polygon points="48,46 46,44 50,44" fill="#ffffff"/>
  
  <!-- Ascia -->
  <line x1="48" y1="46" x2="58" y2="36" stroke="#8b4513" stroke-width="3"/>
  <rect x="56" y="34" width="6" height="4" fill="#c0c0c0"/>
  
  <!-- Scudo di legno -->
  <ellipse cx="20" cy="40" rx="6" ry="8" fill="#8b4513"/>
  <ellipse cx="20" cy="40" rx="4" ry="6" fill="#654321"/>
  
  <!-- Tunica di pelle -->
  <path d="M20 45 Q32 55 44 45 L42 63 L22 63 Z" fill="#006400"/>
  
  <!-- Cintura -->
  <rect x="26" y="50" width="12" height="3" fill="#8b4513"/>
  
  <!-- Fibbia -->
  <rect x="30" y="50" width="4" height="3" fill="#ffd700"/>
  
  <!-- Stivali -->
  <ellipse cx="28" cy="60" rx="4" ry="3" fill="#8b4513"/>
  <ellipse cx="36" cy="60" rx="4" ry="3" fill="#8b4513"/>
</svg>
