<?xml version="1.0" encoding="UTF-8"?>
<svg width="800" height="600" viewBox="0 0 800 600" xmlns="http://www.w3.org/2000/svg">
  <defs>
    <linearGradient id="forestSkyGradient" x1="0%" y1="0%" x2="0%" y2="100%">
      <stop offset="0%" style="stop-color:#2e7d32;stop-opacity:1" />
      <stop offset="100%" style="stop-color:#1b5e20;stop-opacity:1" />
    </linearGradient>
    <linearGradient id="treeGradient" x1="0%" y1="0%" x2="100%" y2="100%">
      <stop offset="0%" style="stop-color:#4caf50;stop-opacity:1" />
      <stop offset="100%" style="stop-color:#2e7d32;stop-opacity:1" />
    </linearGradient>
    <linearGradient id="darkTreeGradient" x1="0%" y1="0%" x2="100%" y2="100%">
      <stop offset="0%" style="stop-color:#2e7d32;stop-opacity:1" />
      <stop offset="100%" style="stop-color:#1b5e20;stop-opacity:1" />
    </linearGradient>
    <linearGradient id="mossGradient" x1="0%" y1="0%" x2="100%" y2="100%">
      <stop offset="0%" style="stop-color:#8bc34a;stop-opacity:1" />
      <stop offset="100%" style="stop-color:#689f38;stop-opacity:1" />
    </linearGradient>
    <radialGradient id="mushroomGradient" cx="50%" cy="50%" r="50%">
      <stop offset="0%" style="stop-color:#ffeb3b;stop-opacity:1" />
      <stop offset="100%" style="stop-color:#ffc107;stop-opacity:0.8" />
    </radialGradient>
  </defs>
  
  <!-- Cielo della foresta -->
  <rect width="800" height="600" fill="url(#forestSkyGradient)"/>
  
  <!-- Luci filtrate attraverso le foglie -->
  <ellipse cx="200" cy="100" rx="40" ry="20" fill="#ffffff" opacity="0.1"/>
  <ellipse cx="400" cy="80" rx="35" ry="18" fill="#ffffff" opacity="0.1"/>
  <ellipse cx="600" cy="120" rx="45" ry="22" fill="#ffffff" opacity="0.1"/>
  
  <!-- Alberi giganti lontani -->
  <g transform="translate(0, 200)">
    <!-- Albero 1 -->
    <ellipse cx="100" cy="200" rx="60" ry="80" fill="url(#darkTreeGradient)" opacity="0.7"/>
    <ellipse cx="120" cy="180" rx="50" ry="70" fill="url(#darkTreeGradient)" opacity="0.7"/>
    <ellipse cx="80" cy="160" rx="40" ry="60" fill="url(#darkTreeGradient)" opacity="0.7"/>
    
    <!-- Albero 2 -->
    <ellipse cx="300" cy="180" rx="70" ry="90" fill="url(#darkTreeGradient)" opacity="0.7"/>
    <ellipse cx="320" cy="160" rx="55" ry="75" fill="url(#darkTreeGradient)" opacity="0.7"/>
    <ellipse cx="280" cy="140" rx="45" ry="65" fill="url(#darkTreeGradient)" opacity="0.7"/>
    
    <!-- Albero 3 -->
    <ellipse cx="500" cy="200" rx="65" ry="85" fill="url(#darkTreeGradient)" opacity="0.7"/>
    <ellipse cx="520" cy="180" rx="50" ry="70" fill="url(#darkTreeGradient)" opacity="0.7"/>
    <ellipse cx="480" cy="160" rx="40" ry="60" fill="url(#darkTreeGradient)" opacity="0.7"/>
    
    <!-- Albero 4 -->
    <ellipse cx="700" cy="180" rx="60" ry="80" fill="url(#darkTreeGradient)" opacity="0.7"/>
    <ellipse cx="720" cy="160" rx="45" ry="65" fill="url(#darkTreeGradient)" opacity="0.7"/>
    <ellipse cx="680" cy="140" rx="35" ry="55" fill="url(#darkTreeGradient)" opacity="0.7"/>
  </g>
  
  <!-- Alberi medi -->
  <g transform="translate(0, 300)">
    <!-- Albero 5 -->
    <ellipse cx="150" cy="150" rx="45" ry="60" fill="url(#treeGradient)" opacity="0.8"/>
    <ellipse cx="170" cy="130" rx="35" ry="50" fill="url(#treeGradient)" opacity="0.8"/>
    <ellipse cx="130" cy="110" rx="30" ry="40" fill="url(#treeGradient)" opacity="0.8"/>
    
    <!-- Albero 6 -->
    <ellipse cx="350" cy="140" rx="50" ry="65" fill="url(#treeGradient)" opacity="0.8"/>
    <ellipse cx="370" cy="120" rx="40" ry="55" fill="url(#treeGradient)" opacity="0.8"/>
    <ellipse cx="330" cy="100" rx="35" ry="45" fill="url(#treeGradient)" opacity="0.8"/>
    
    <!-- Albero 7 -->
    <ellipse cx="550" cy="160" rx="48" ry="62" fill="url(#treeGradient)" opacity="0.8"/>
    <ellipse cx="570" cy="140" rx="38" ry="52" fill="url(#treeGradient)" opacity="0.8"/>
    <ellipse cx="530" cy="120" rx="32" ry="42" fill="url(#treeGradient)" opacity="0.8"/>
    
    <!-- Albero 8 -->
    <ellipse cx="750" cy="150" rx="42" ry="58" fill="url(#treeGradient)" opacity="0.8"/>
    <ellipse cx="770" cy="130" rx="32" ry="48" fill="url(#treeGradient)" opacity="0.8"/>
    <ellipse cx="730" cy="110" rx="28" ry="38" fill="url(#treeGradient)" opacity="0.8"/>
  </g>
  
  <!-- Alberi vicini -->
  <g transform="translate(0, 400)">
    <!-- Albero 9 -->
    <ellipse cx="200" cy="100" rx="40" ry="55" fill="url(#treeGradient)" opacity="0.9"/>
    <ellipse cx="220" cy="80" rx="30" ry="45" fill="url(#treeGradient)" opacity="0.9"/>
    <ellipse cx="180" cy="60" rx="25" ry="35" fill="url(#treeGradient)" opacity="0.9"/>
    
    <!-- Albero 10 -->
    <ellipse cx="400" cy="90" rx="45" ry="60" fill="url(#treeGradient)" opacity="0.9"/>
    <ellipse cx="420" cy="70" rx="35" ry="50" fill="url(#treeGradient)" opacity="0.9"/>
    <ellipse cx="380" cy="50" rx="30" ry="40" fill="url(#treeGradient)" opacity="0.9"/>
    
    <!-- Albero 11 -->
    <ellipse cx="600" cy="110" rx="42" ry="58" fill="url(#treeGradient)" opacity="0.9"/>
    <ellipse cx="620" cy="90" rx="32" ry="48" fill="url(#treeGradient)" opacity="0.9"/>
    <ellipse cx="580" cy="70" rx="28" ry="38" fill="url(#treeGradient)" opacity="0.9"/>
  </g>
  
  <!-- Tronchi degli alberi -->
  <g transform="translate(0, 450)">
    <rect x="190" y="0" width="20" height="80" fill="#5d4037" stroke="#3e2723" stroke-width="1"/>
    <rect x="390" y="0" width="20" height="80" fill="#5d4037" stroke="#3e2723" stroke-width="1"/>
    <rect x="590" y="0" width="20" height="80" fill="#5d4037" stroke="#3e2723" stroke-width="1"/>
  </g>
  
  <!-- Radici -->
  <g transform="translate(0, 520)">
    <path d="M180 0 Q200 20 220 0" fill="none" stroke="#5d4037" stroke-width="3" opacity="0.8"/>
    <path d="M380 0 Q400 20 420 0" fill="none" stroke="#5d4037" stroke-width="3" opacity="0.8"/>
    <path d="M580 0 Q600 20 620 0" fill="none" stroke="#5d4037" stroke-width="3" opacity="0.8"/>
  </g>
  
  <!-- Muschio sul terreno -->
  <g transform="translate(0, 550)">
    <ellipse cx="100" cy="0" rx="30" ry="15" fill="url(#mossGradient)" opacity="0.7"/>
    <ellipse cx="300" cy="0" rx="35" ry="18" fill="url(#mossGradient)" opacity="0.7"/>
    <ellipse cx="500" cy="0" rx="32" ry="16" fill="url(#mossGradient)" opacity="0.7"/>
    <ellipse cx="700" cy="0" rx="28" ry="14" fill="url(#mossGradient)" opacity="0.7"/>
  </g>
  
  <!-- Funghi -->
  <g transform="translate(0, 520)">
    <ellipse cx="120" cy="0" rx="8" ry="12" fill="url(#mushroomGradient)"/>
    <ellipse cx="320" cy="0" rx="6" ry="10" fill="url(#mushroomGradient)"/>
    <ellipse cx="520" cy="0" rx="7" ry="11" fill="url(#mushroomGradient)"/>
    <ellipse cx="720" cy="0" rx="5" ry="9" fill="url(#mushroomGradient)"/>
  </g>
  
  <!-- Sentiero nascosto -->
  <path d="M350 500 Q400 480 450 500 Q500 520 550 500 Q600 480 650 500" fill="none" stroke="#8d6e63" stroke-width="3" opacity="0.4" stroke-dasharray="10,5"/>
  
  <!-- Luci magiche -->
  <circle cx="250" cy="200" r="3" fill="#4fc3f7" opacity="0.6"/>
  <circle cx="450" cy="180" r="2" fill="#4fc3f7" opacity="0.6"/>
  <circle cx="650" cy="220" r="2.5" fill="#4fc3f7" opacity="0.6"/>
</svg>
