<?xml version="1.0" encoding="UTF-8"?>
<svg width="800" height="600" viewBox="0 0 800 600" xmlns="http://www.w3.org/2000/svg">
  <defs>
    <linearGradient id="skyGradient" x1="0%" y1="0%" x2="0%" y2="100%">
      <stop offset="0%" style="stop-color:#87ceeb;stop-opacity:1" />
      <stop offset="100%" style="stop-color:#e0f6ff;stop-opacity:1" />
    </linearGradient>
    <linearGradient id="mountainGradient" x1="0%" y1="0%" x2="100%" y2="100%">
      <stop offset="0%" style="stop-color:#8d6e63;stop-opacity:1" />
      <stop offset="100%" style="stop-color:#5d4037;stop-opacity:1" />
    </linearGradient>
    <linearGradient id="forestGradient" x1="0%" y1="0%" x2="100%" y2="100%">
      <stop offset="0%" style="stop-color:#4caf50;stop-opacity:1" />
      <stop offset="100%" style="stop-color:#2e7d32;stop-opacity:1" />
    </linearGradient>
    <linearGradient id="castleGradient" x1="0%" y1="0%" x2="100%" y2="100%">
      <stop offset="0%" style="stop-color:#bdbdbd;stop-opacity:1" />
      <stop offset="100%" style="stop-color:#757575;stop-opacity:1" />
    </linearGradient>
    <radialGradient id="sunGradient" cx="50%" cy="50%" r="50%">
      <stop offset="0%" style="stop-color:#ffeb3b;stop-opacity:1" />
      <stop offset="100%" style="stop-color:#ffc107;stop-opacity:0.8" />
    </radialGradient>
  </defs>
  
  <!-- Cielo -->
  <rect width="800" height="600" fill="url(#skyGradient)"/>
  
  <!-- Sole -->
  <circle cx="700" cy="100" r="40" fill="url(#sunGradient)"/>
  
  <!-- Nuvole -->
  <ellipse cx="150" cy="80" rx="30" ry="20" fill="#ffffff" opacity="0.8"/>
  <ellipse cx="180" cy="85" rx="25" ry="15" fill="#ffffff" opacity="0.8"/>
  <ellipse cx="200" cy="90" rx="20" ry="12" fill="#ffffff" opacity="0.8"/>
  
  <ellipse cx="500" cy="60" rx="35" ry="18" fill="#ffffff" opacity="0.7"/>
  <ellipse cx="530" cy="65" rx="28" ry="14" fill="#ffffff" opacity="0.7"/>
  
  <!-- Montagne lontane -->
  <path d="M0 400 L100 300 L200 350 L300 280 L400 320 L500 290 L600 330 L700 300 L800 350 L800 600 L0 600 Z" fill="url(#mountainGradient)" opacity="0.6"/>
  
  <!-- Montagne vicine -->
  <path d="M0 450 L150 350 L250 380 L350 320 L450 350 L550 310 L650 340 L750 320 L800 350 L800 600 L0 600 Z" fill="url(#mountainGradient)" opacity="0.8"/>
  
  <!-- Castello di Valdoria -->
  <g transform="translate(350, 200)">
    <!-- Torre principale -->
    <rect x="0" y="0" width="100" height="120" fill="url(#castleGradient)" stroke="#424242" stroke-width="2"/>
    <rect x="10" y="10" width="20" height="20" fill="#424242"/>
    <rect x="70" y="10" width="20" height="20" fill="#424242"/>
    <rect x="10" y="40" width="20" height="20" fill="#424242"/>
    <rect x="70" y="40" width="20" height="20" fill="#424242"/>
    
    <!-- Merli -->
    <path d="M0 0 L0 -10 L10 -10 L10 0 Z" fill="url(#castleGradient)"/>
    <path d="M20 0 L20 -10 L30 -10 L30 0 Z" fill="url(#castleGradient)"/>
    <path d="M40 0 L40 -10 L50 -10 L50 0 Z" fill="url(#castleGradient)"/>
    <path d="M50 0 L50 -10 L60 -10 L60 0 Z" fill="url(#castleGradient)"/>
    <path d="M60 0 L60 -10 L70 -10 L70 0 Z" fill="url(#castleGradient)"/>
    <path d="M80 0 L80 -10 L90 -10 L90 0 Z" fill="url(#castleGradient)"/>
    <path d="M90 0 L90 -10 L100 -10 L100 0 Z" fill="url(#castleGradient)"/>
    
    <!-- Torre sinistra -->
    <rect x="-30" y="20" width="40" height="80" fill="url(#castleGradient)" stroke="#424242" stroke-width="2"/>
    <rect x="-20" y="30" width="15" height="15" fill="#424242"/>
    <rect x="-5" y="30" width="15" height="15" fill="#424242"/>
    
    <!-- Torre destra -->
    <rect x="90" y="20" width="40" height="80" fill="url(#castleGradient)" stroke="#424242" stroke-width="2"/>
    <rect x="95" y="30" width="15" height="15" fill="#424242"/>
    <rect x="110" y="30" width="15" height="15" fill="#424242"/>
    
    <!-- Bandiera -->
    <line x1="50" y1="-10" x2="50" y2="-30" stroke="#8d6e63" stroke-width="2"/>
    <rect x="50" y="-30" width="20" height="12" fill="#d32f2f"/>
    <circle cx="60" cy="-24" r="3" fill="#ffd700"/>
  </g>
  
  <!-- Foreste -->
  <g transform="translate(0, 400)">
    <!-- Alberi lontani -->
    <circle cx="100" cy="100" r="25" fill="url(#forestGradient)" opacity="0.6"/>
    <circle cx="130" cy="120" r="20" fill="url(#forestGradient)" opacity="0.6"/>
    <circle cx="160" cy="110" r="30" fill="url(#forestGradient)" opacity="0.6"/>
    
    <circle cx="600" cy="90" r="28" fill="url(#forestGradient)" opacity="0.6"/>
    <circle cx="630" cy="110" r="22" fill="url(#forestGradient)" opacity="0.6"/>
    <circle cx="660" cy="100" r="26" fill="url(#forestGradient)" opacity="0.6"/>
    
    <!-- Alberi vicini -->
    <circle cx="200" cy="80" r="35" fill="url(#forestGradient)" opacity="0.8"/>
    <circle cx="240" cy="100" r="30" fill="url(#forestGradient)" opacity="0.8"/>
    <circle cx="280" cy="90" r="32" fill="url(#forestGradient)" opacity="0.8"/>
    
    <circle cx="500" cy="70" r="33" fill="url(#forestGradient)" opacity="0.8"/>
    <circle cx="540" cy="90" r="29" fill="url(#forestGradient)" opacity="0.8"/>
    <circle cx="580" cy="80" r="31" fill="url(#forestGradient)" opacity="0.8"/>
  </g>
  
  <!-- Prato -->
  <rect x="0" y="500" width="800" height="100" fill="#8bc34a"/>
  
  <!-- Sentiero -->
  <path d="M350 500 L450 500 L500 520 L550 520 L600 500 L700 500" fill="#8d6e63" stroke="#5d4037" stroke-width="2"/>
  
  <!-- Fiori e dettagli -->
  <circle cx="150" cy="520" r="3" fill="#ffeb3b"/>
  <circle cx="180" cy="530" r="2" fill="#e91e63"/>
  <circle cx="220" cy="525" r="2.5" fill="#9c27b0"/>
  <circle cx="650" cy="515" r="2" fill="#ffeb3b"/>
  <circle cx="680" cy="525" r="2.5" fill="#e91e63"/>
</svg>
