<?xml version="1.0" encoding="UTF-8"?>
<svg width="64" height="64" viewBox="0 0 64 64" xmlns="http://www.w3.org/2000/svg">
  <!-- Sfondo trasparente -->
  <rect width="64" height="64" fill="none"/>
  
  <!-- Corpo dell'arciere -->
  <ellipse cx="32" cy="45" rx="10" ry="16" fill="#50c878"/>
  
  <!-- Testa -->
  <circle cx="32" cy="25" r="10" fill="#ffdbac"/>
  
  <!-- Cappello da cacciatore -->
  <path d="M22 18 Q32 8 42 18 L40 22 Q32 12 24 22 Z" fill="#8b4513"/>
  <ellipse cx="32" cy="20" rx="6" ry="2" fill="#654321"/>
  
  <!-- Occhi -->
  <circle cx="28" cy="22" r="1.5" fill="#000"/>
  <circle cx="36" cy="22" r="1.5" fill="#000"/>
  
  <!-- Bocca -->
  <path d="M30 28 Q32 30 34 28" stroke="#000" stroke-width="1" fill="none"/>
  
  <!-- Braccia -->
  <ellipse cx="18" cy="38" rx="3" ry="10" fill="#50c878"/>
  <ellipse cx="46" cy="38" rx="3" ry="10" fill="#50c878"/>
  
  <!-- Mani -->
  <circle cx="16" cy="46" r="2.5" fill="#ffdbac"/>
  <circle cx="48" cy="46" r="2.5" fill="#ffdbac"/>
  
  <!-- Arco -->
  <path d="M48 46 Q52 42 54 38 Q52 34 48 30" stroke="#8b4513" stroke-width="2" fill="none"/>
  <line x1="48" cy="46" x2="48" y2="30" stroke="#8b4513" stroke-width="1"/>
  
  <!-- Freccia -->
  <line x1="48" y1="38" x2="58" y2="38" stroke="#8b4513" stroke-width="1"/>
  <polygon points="58,38 56,36 56,40" fill="#8b4513"/>
  
  <!-- Faretra -->
  <ellipse cx="20" cy="50" rx="4" ry="8" fill="#8b4513"/>
  <ellipse cx="20" cy="50" rx="3" ry="6" fill="#654321"/>
  
  <!-- Frecce nella faretra -->
  <line x1="18" y1="46" x2="22" y2="50" stroke="#8b4513" stroke-width="1"/>
  <line x1="18" y1="48" x2="22" y2="52" stroke="#8b4513" stroke-width="1"/>
  <line x1="18" y1="50" x2="22" y2="54" stroke="#8b4513" stroke-width="1"/>
  
  <!-- Tunica -->
  <path d="M22 45 Q32 55 42 45 L40 63 L24 63 Z" fill="#228b22"/>
  
  <!-- Cintura -->
  <rect x="28" y="50" width="8" height="2" fill="#8b4513"/>
  
  <!-- Stivali -->
  <ellipse cx="28" cy="60" rx="4" ry="3" fill="#8b4513"/>
  <ellipse cx="36" cy="60" rx="4" ry="3" fill="#8b4513"/>
</svg>
