<?xml version="1.0" encoding="UTF-8"?>
<svg width="64" height="64" viewBox="0 0 64 64" xmlns="http://www.w3.org/2000/svg">
  <!-- Sfondo trasparente -->
  <rect width="64" height="64" fill="none"/>
  
  <!-- Corpo del cavaliere -->
  <ellipse cx="32" cy="45" rx="12" ry="18" fill="#8b4513"/>
  
  <!-- Testa -->
  <circle cx="32" cy="25" r="10" fill="#ffdbac"/>
  
  <!-- Elmo -->
  <path d="M22 18 Q32 8 42 18 L40 22 Q32 12 24 22 Z" fill="#696969"/>
  <ellipse cx="32" cy="20" rx="6" ry="2" fill="#4a4a4a"/>
  <rect x="30" y="18" width="4" height="2" fill="#4a4a4a"/>
  
  <!-- Visiera -->
  <rect x="28" y="20" width="8" height="1" fill="#4a4a4a"/>
  
  <!-- Occhi -->
  <circle cx="28" cy="22" r="1.5" fill="#000"/>
  <circle cx="36" cy="22" r="1.5" fill="#000"/>
  
  <!-- Bocca -->
  <path d="M30 28 Q32 30 34 28" stroke="#000" stroke-width="1" fill="none"/>
  
  <!-- Braccia -->
  <ellipse cx="18" cy="38" rx="4" ry="12" fill="#8b4513"/>
  <ellipse cx="46" cy="38" rx="4" ry="12" fill="#8b4513"/>
  
  <!-- Mani -->
  <circle cx="16" cy="46" r="3" fill="#ffdbac"/>
  <circle cx="48" cy="46" r="3" fill="#ffdbac"/>
  
  <!-- Spada -->
  <line x1="48" y1="46" x2="58" y2="36" stroke="#c0c0c0" stroke-width="2"/>
  <rect x="56" y="34" width="4" height="4" fill="#c0c0c0"/>
  <rect x="46" y="44" width="2" height="4" fill="#8b4513"/>
  
  <!-- Scudo -->
  <ellipse cx="20" cy="40" rx="6" ry="8" fill="#8b4513"/>
  <ellipse cx="20" cy="40" rx="4" ry="6" fill="#654321"/>
  <circle cx="20" cy="40" r="2" fill="#ffd700"/>
  
  <!-- Armatura -->
  <path d="M20 45 Q32 55 44 45 L42 63 L22 63 Z" fill="#696969"/>
  
  <!-- Placche dell'armatura -->
  <rect x="26" y="45" width="12" height="2" fill="#4a4a4a"/>
  <rect x="28" y="47" width="8" height="2" fill="#4a4a4a"/>
  <rect x="30" y="49" width="4" height="2" fill="#4a4a4a"/>
  
  <!-- Cintura -->
  <rect x="26" y="50" width="12" height="3" fill="#8b4513"/>
  
  <!-- Fibbia della cintura -->
  <rect x="30" y="50" width="4" height="3" fill="#ffd700"/>
  
  <!-- Stivali -->
  <ellipse cx="28" cy="60" rx="4" ry="3" fill="#8b4513"/>
  <ellipse cx="36" cy="60" rx="4" ry="3" fill="#8b4513"/>
</svg>
