<?xml version="1.0" encoding="UTF-8"?>
<svg width="64" height="64" viewBox="0 0 64 64" xmlns="http://www.w3.org/2000/svg">
  <!-- Sfondo trasparente -->
  <rect width="64" height="64" fill="none"/>
  
  <!-- Corpo della valkiria -->
  <ellipse cx="32" cy="45" rx="10" ry="16" fill="#ffd700"/>
  
  <!-- Testa -->
  <circle cx="32" cy="25" r="10" fill="#ffdbac"/>
  
  <!-- Elmo alato -->
  <path d="M22 18 Q32 8 42 18 L40 22 Q32 12 24 22 Z" fill="#ffd700"/>
  <ellipse cx="32" cy="20" rx="6" ry="2" fill="#daa520"/>
  
  <!-- Ali dell'elmo -->
  <path d="M18 15 Q15 10 12 15 Q15 20 18 15" fill="#ffd700"/>
  <path d="M46 15 Q49 10 52 15 Q49 20 46 15" fill="#ffd700"/>
  
  <!-- Occhi -->
  <circle cx="28" cy="22" r="1.5" fill="#000"/>
  <circle cx="36" cy="22" r="1.5" fill="#000"/>
  
  <!-- Bocca -->
  <path d="M30 28 Q32 30 34 28" stroke="#000" stroke-width="1" fill="none"/>
  
  <!-- Braccia -->
  <ellipse cx="18" cy="38" rx="3" ry="10" fill="#ffd700"/>
  <ellipse cx="46" cy="38" rx="3" ry="10" fill="#ffd700"/>
  
  <!-- Mani -->
  <circle cx="16" cy="46" r="2.5" fill="#ffdbac"/>
  <circle cx="48" cy="46" r="2.5" fill="#ffdbac"/>
  
  <!-- Lancia sacra -->
  <line x1="48" y1="46" x2="58" y2="36" stroke="#c0c0c0" stroke-width="2"/>
  <polygon points="58,36 56,34 56,38" fill="#ffd700"/>
  <rect x="46" y="44" width="2" height="4" fill="#8b4513"/>
  
  <!-- Scudo sacro -->
  <ellipse cx="20" cy="40" rx="5" ry="7" fill="#ffd700"/>
  <ellipse cx="20" cy="40" rx="3" ry="5" fill="#daa520"/>
  <path d="M20 35 Q20 40 20 45" stroke="#daa520" stroke-width="1" fill="none"/>
  <path d="M15 40 Q20 40 25 40" stroke="#daa520" stroke-width="1" fill="none"/>
  
  <!-- Toga sacra -->
  <path d="M22 45 Q32 55 42 45 L40 63 L24 63 Z" fill="#daa520"/>
  
  <!-- Ornamenti della toga -->
  <circle cx="32" cy="45" r="2" fill="#ffd700"/>
  <circle cx="28" cy="48" r="1.5" fill="#ffd700"/>
  <circle cx="36" cy="48" r="1.5" fill="#ffd700"/>
  
  <!-- Cintura -->
  <rect x="28" y="50" width="8" height="2" fill="#8b4513"/>
  
  <!-- Fibbia sacra -->
  <circle cx="32" cy="51" r="2" fill="#ffd700"/>
  
  <!-- Stivali alati -->
  <ellipse cx="28" cy="60" rx="4" ry="3" fill="#8b4513"/>
  <ellipse cx="36" cy="60" rx="4" ry="3" fill="#8b4513"/>
  
  <!-- Ali decorative -->
  <path d="M15 35 Q10 30 5 35 Q10 40 15 35" fill="#ffd700" opacity="0.7"/>
  <path d="M49 35 Q54 30 59 35 Q54 40 49 35" fill="#ffd700" opacity="0.7"/>
  
  <!-- Aura sacra -->
  <circle cx="32" cy="32" r="25" fill="none" stroke="#ffd700" stroke-width="1" opacity="0.3">
    <animate attributeName="opacity" values="0.3;0.1;0.3" dur="3s" repeatCount="indefinite"/>
  </circle>
</svg>
